<?xml version="1.0" encoding="UTF-8" standalone="no"?>
<!-- Created with Inkscape (http://www.inkscape.org/) -->

<svg
   width="135.69009mm"
   height="67.845047mm"
   viewBox="0 0 135.69009 67.845047"
   version="1.1"
   id="svg5"
   inkscape:version="1.1 (c68e22c387, 2021-05-23)"
   sodipodi:docname="rainbow.svg"
   xmlns:inkscape="http://www.inkscape.org/namespaces/inkscape"
   xmlns:sodipodi="http://sodipodi.sourceforge.net/DTD/sodipodi-0.dtd"
   xmlns="http://www.w3.org/2000/svg"
   xmlns:svg="http://www.w3.org/2000/svg">
  <sodipodi:namedview
     id="namedview7"
     pagecolor="#505050"
     bordercolor="#ffffff"
     borderopacity="1"
     inkscape:pageshadow="0"
     inkscape:pageopacity="0"
     inkscape:pagecheckerboard="1"
     inkscape:document-units="mm"
     showgrid="false"
     inkscape:zoom="0.9353527"
     inkscape:cx="96.754946"
     inkscape:cy="215.96132"
     inkscape:window-width="1368"
     inkscape:window-height="854"
     inkscape:window-x="-6"
     inkscape:window-y="29"
     inkscape:window-maximized="1"
     inkscape:current-layer="g52016" />
  <defs
     id="defs2" />
  <g
     inkscape:label="Layer 1 copy copy"
     inkscape:groupmode="layer"
     id="g52016"
     style="display:inline"
     transform="translate(-46.02076,-138.06229)">
    <path
       style="fill:#ffa8f3;fill-opacity:1;stroke-width:0.264583"
       id="path51934"
       sodipodi:type="arc"
       sodipodi:cx="113.86581"
       sodipodi:cy="-205.90733"
       sodipodi:rx="67.845047"
       sodipodi:ry="67.845047"
       sodipodi:start="0"
       sodipodi:end="0.087266463"
       sodipodi:arc-type="slice"
       d="m 181.71085,-205.90733 a 67.845047,67.845047 0 0 1 -0.25817,5.91308 l -67.58687,-5.91308 z"
       transform="scale(1,-1)" />
    <path
       style="fill:#32a800;fill-opacity:1;stroke-width:0.264583"
       id="path51936"
       sodipodi:type="arc"
       sodipodi:cx="113.86581"
       sodipodi:cy="-205.90733"
       sodipodi:rx="67.845047"
       sodipodi:ry="67.845047"
       sodipodi:start="0.087266463"
       sodipodi:end="0.17453293"
       sodipodi:arc-type="slice"
       d="m 181.45268,-199.99425 a 67.845047,67.845047 0 0 1 -0.77255,5.86809 l -66.81432,-11.78117 z"
       transform="scale(1,-1)" />
    <path
       style="fill:#ff8a3d;fill-opacity:1;stroke-width:0.264583"
       id="path51940"
       sodipodi:type="arc"
       sodipodi:cx="113.86581"
       sodipodi:cy="-205.90733"
       sodipodi:rx="67.845047"
       sodipodi:ry="67.845047"
       sodipodi:start="0.17453293"
       sodipodi:end="0.26179939"
       sodipodi:arc-type="slice"
       d="m 180.68013,-194.12616 a 67.845047,67.845047 0 0 1 -1.28104,5.77842 l -65.53328,-17.55959 z"
       transform="scale(1,-1)" />
    <path
       style="fill:#ff4747;fill-opacity:1;stroke-width:0.264583"
       id="path51942"
       sodipodi:type="arc"
       sodipodi:cx="113.86581"
       sodipodi:cy="-205.90733"
       sodipodi:rx="67.845047"
       sodipodi:ry="67.845047"
       sodipodi:start="0.26179939"
       sodipodi:end="0.34906585"
       sodipodi:arc-type="slice"
       d="m 179.39909,-188.34774 a 67.845047,67.845047 0 0 1 -1.77979,5.64478 l -63.75349,-23.20437 z"
       transform="scale(1,-1)" />
    <path
       style="fill:#0094ff;fill-opacity:1;stroke-width:0.264583"
       id="path51944"
       sodipodi:type="arc"
       sodipodi:cx="113.86581"
       sodipodi:cy="-205.90733"
       sodipodi:rx="67.845047"
       sodipodi:ry="67.845047"
       sodipodi:start="0.34906585"
       sodipodi:end="0.43633231"
       sodipodi:arc-type="slice"
       d="m 177.6193,-182.70296 a 67.845047,67.845047 0 0 1 -2.265,5.46818 l -61.48849,-28.67255 z"
       transform="scale(1,-1)" />
    <path
       style="fill:#ffd800;fill-opacity:1;stroke-width:0.264583"
       id="path51946"
       sodipodi:type="arc"
       sodipodi:cx="113.86581"
       sodipodi:cy="-205.90733"
       sodipodi:rx="67.845047"
       sodipodi:ry="67.845047"
       sodipodi:start="0.43633231"
       sodipodi:end="0.52359878"
       sodipodi:arc-type="slice"
       d="m 175.3543,-177.23478 a 67.845047,67.845047 0 0 1 -2.73296,5.24997 l -58.75553,-33.92252 z"
       transform="scale(1,-1)" />
    <path
       style="fill:#c472ff;fill-opacity:1;stroke-width:0.264583"
       id="path51948"
       sodipodi:type="arc"
       sodipodi:cx="113.86581"
       sodipodi:cy="-205.90733"
       sodipodi:rx="67.845047"
       sodipodi:ry="67.845047"
       sodipodi:start="0.52359878"
       sodipodi:end="0.61086524"
       sodipodi:arc-type="slice"
       d="m 172.62134,-171.98481 a 67.845047,67.845047 0 0 1 -3.18012,4.9918 l -55.57541,-38.91432 z"
       transform="scale(1,-1)" />
    <path
       style="fill:#ffa8f3;fill-opacity:1;stroke-width:0.264583"
       id="path51950"
       sodipodi:type="arc"
       sodipodi:cx="113.86581"
       sodipodi:cy="-205.90733"
       sodipodi:rx="67.845047"
       sodipodi:ry="67.845047"
       sodipodi:start="0.61086524"
       sodipodi:end="0.6981317"
       sodipodi:arc-type="slice"
       d="m 169.44122,-166.99301 a 67.845047,67.845047 0 0 1 -3.60309,4.69563 l -51.97232,-43.60995 z"
       transform="scale(1,-1)" />
    <path
       style="fill:#32a800;fill-opacity:1;stroke-width:0.264583"
       id="path51952"
       sodipodi:type="arc"
       sodipodi:cx="113.86581"
       sodipodi:cy="-205.90733"
       sodipodi:rx="67.845047"
       sodipodi:ry="67.845047"
       sodipodi:start="0.6981317"
       sodipodi:end="0.78539816"
       sodipodi:arc-type="slice"
       d="m 165.83813,-162.29738 a 67.845047,67.845047 0 0 1 -3.99863,4.36374 l -47.97369,-47.97369 z"
       transform="scale(1,-1)" />
    <path
       style="fill:#ff8a3d;fill-opacity:1;stroke-width:0.264583"
       id="path51954"
       sodipodi:type="arc"
       sodipodi:cx="113.86581"
       sodipodi:cy="-205.90733"
       sodipodi:rx="67.845047"
       sodipodi:ry="67.845047"
       sodipodi:start="0.78539816"
       sodipodi:end="0.87266463"
       sodipodi:arc-type="slice"
       d="m 161.8395,-157.93364 a 67.845047,67.845047 0 0 1 -4.36374,3.99863 l -43.60995,-51.97232 z"
       transform="scale(1,-1)" />
    <path
       style="fill:#ff4747;fill-opacity:1;stroke-width:0.264583"
       id="path51956"
       sodipodi:type="arc"
       sodipodi:cx="113.86581"
       sodipodi:cy="-205.90733"
       sodipodi:rx="67.845047"
       sodipodi:ry="67.845047"
       sodipodi:start="0.87266463"
       sodipodi:end="0.95993109"
       sodipodi:arc-type="slice"
       d="m 157.47576,-153.93501 a 67.845047,67.845047 0 0 1 -4.69563,3.60309 l -38.91432,-55.57541 z"
       transform="scale(1,-1)" />
    <path
       style="fill:#0094ff;fill-opacity:1;stroke-width:0.264583"
       id="path51958"
       sodipodi:type="arc"
       sodipodi:cx="113.86581"
       sodipodi:cy="-205.90733"
       sodipodi:rx="67.845047"
       sodipodi:ry="67.845047"
       sodipodi:start="0.95993109"
       sodipodi:end="1.0471976"
       sodipodi:arc-type="slice"
       d="m 152.78013,-150.33192 a 67.845047,67.845047 0 0 1 -4.9918,3.18012 l -33.92252,-58.75553 z"
       transform="scale(1,-1)" />
    <path
       style="fill:#ffd800;fill-opacity:1;stroke-width:0.264583"
       id="path51960"
       sodipodi:type="arc"
       sodipodi:cx="113.86581"
       sodipodi:cy="-205.90733"
       sodipodi:rx="67.845047"
       sodipodi:ry="67.845047"
       sodipodi:start="1.0471976"
       sodipodi:end="1.134464"
       sodipodi:arc-type="slice"
       d="m 147.78833,-147.1518 a 67.845047,67.845047 0 0 1 -5.24997,2.73296 l -28.67255,-61.48849 z"
       transform="scale(1,-1)" />
    <path
       style="fill:#c472ff;fill-opacity:1;stroke-width:0.264583"
       id="path51962"
       sodipodi:type="arc"
       sodipodi:cx="113.86581"
       sodipodi:cy="-205.90733"
       sodipodi:rx="67.845047"
       sodipodi:ry="67.845047"
       sodipodi:start="1.134464"
       sodipodi:end="1.2217305"
       sodipodi:arc-type="slice"
       d="m 142.53836,-144.41884 a 67.845047,67.845047 0 0 1 -5.46818,2.265 l -23.20437,-63.75349 z"
       transform="scale(1,-1)" />
    <path
       style="fill:#ffa8f3;fill-opacity:1;stroke-width:0.264583"
       id="path51964"
       sodipodi:type="arc"
       sodipodi:cx="113.86581"
       sodipodi:cy="-205.90733"
       sodipodi:rx="67.845047"
       sodipodi:ry="67.845047"
       sodipodi:start="1.2217305"
       sodipodi:end="1.3089969"
       sodipodi:arc-type="slice"
       d="m 137.07018,-142.15384 a 67.845047,67.845047 0 0 1 -5.64478,1.77979 l -17.55959,-65.53328 z"
       transform="scale(1,-1)" />
    <path
       style="fill:#32a800;fill-opacity:1;stroke-width:0.264583"
       id="path51966"
       sodipodi:type="arc"
       sodipodi:cx="113.86581"
       sodipodi:cy="-205.90733"
       sodipodi:rx="67.845047"
       sodipodi:ry="67.845001"
       sodipodi:start="1.3089969"
       sodipodi:end="1.3962634"
       sodipodi:arc-type="slice"
       d="m 131.4254,-140.3741 a 67.845047,67.845001 0 0 1 -5.77842,1.28105 l -11.78117,-66.81428 z"
       transform="scale(1,-1)" />
    <path
       style="fill:#ff8a3d;fill-opacity:1;stroke-width:0.264583"
       id="path51968"
       sodipodi:type="arc"
       sodipodi:cx="113.86581"
       sodipodi:cy="-205.90733"
       sodipodi:rx="67.845047"
       sodipodi:ry="67.845047"
       sodipodi:start="1.3962634"
       sodipodi:end="1.4835299"
       sodipodi:arc-type="slice"
       d="m 125.64698,-139.09301 a 67.845047,67.845047 0 0 1 -5.86809,0.77255 l -5.91308,-67.58687 z"
       transform="scale(1,-1)" />
    <path
       style="fill:#ff4747;fill-opacity:1;stroke-width:0.264583"
       id="path51970"
       sodipodi:type="arc"
       sodipodi:cx="113.86581"
       sodipodi:cy="-205.90733"
       sodipodi:rx="67.845047"
       sodipodi:ry="67.845047"
       sodipodi:start="1.4835299"
       sodipodi:end="1.5707963"
       sodipodi:arc-type="slice"
       d="m 119.77889,-138.32046 a 67.845047,67.845047 0 0 1 -5.91308,0.25817 v -67.84504 z"
       transform="scale(1,-1)" />
    <path
       style="fill:#0094ff;fill-opacity:1;stroke-width:0.264583"
       id="path51972"
       sodipodi:type="arc"
       sodipodi:cx="113.86581"
       sodipodi:cy="-205.90733"
       sodipodi:rx="67.845047"
       sodipodi:ry="67.845047"
       sodipodi:start="1.5707963"
       sodipodi:end="1.6580628"
       sodipodi:arc-type="slice"
       d="m 113.86581,-138.06229 a 67.845047,67.845047 0 0 1 -5.91309,-0.25817 l 5.91309,-67.58687 z"
       transform="scale(1,-1)" />
    <path
       style="fill:#ffd800;fill-opacity:1;stroke-width:0.264583"
       id="path51974"
       sodipodi:type="arc"
       sodipodi:cx="113.86581"
       sodipodi:cy="-205.90733"
       sodipodi:rx="67.845047"
       sodipodi:ry="67.845047"
       sodipodi:start="1.6580628"
       sodipodi:end="1.7453293"
       sodipodi:arc-type="slice"
       d="m 107.95272,-138.32046 a 67.845047,67.845047 0 0 1 -5.86809,-0.77255 l 11.78118,-66.81432 z"
       transform="scale(1,-1)" />
    <path
       style="fill:#c472ff;fill-opacity:1;stroke-width:0.264583"
       id="path51976"
       sodipodi:type="arc"
       sodipodi:cx="113.86581"
       sodipodi:cy="-205.90733"
       sodipodi:rx="67.845047"
       sodipodi:ry="67.845047"
       sodipodi:start="1.7453293"
       sodipodi:end="1.8325957"
       sodipodi:arc-type="slice"
       d="m 102.08463,-139.09301 a 67.845047,67.845047 0 0 1 -5.778413,-1.28104 l 17.559593,-65.53328 z"
       transform="scale(1,-1)" />
    <path
       style="fill:#ffa8f3;fill-opacity:1;stroke-width:0.264583"
       id="path51978"
       sodipodi:type="arc"
       sodipodi:cx="113.86581"
       sodipodi:cy="-205.90733"
       sodipodi:rx="67.845047"
       sodipodi:ry="67.845047"
       sodipodi:start="1.8325957"
       sodipodi:end="1.9198622"
       sodipodi:arc-type="slice"
       d="m 96.306217,-140.37405 a 67.845047,67.845047 0 0 1 -5.644785,-1.77979 l 23.204378,-63.75349 z"
       transform="scale(1,-1)" />
    <path
       style="fill:#32a800;fill-opacity:1;stroke-width:0.264583"
       id="path51980"
       sodipodi:type="arc"
       sodipodi:cx="113.86581"
       sodipodi:cy="-205.90733"
       sodipodi:rx="67.845047"
       sodipodi:ry="67.845047"
       sodipodi:start="1.9198622"
       sodipodi:end="2.0071286"
       sodipodi:arc-type="slice"
       d="m 90.661432,-142.15384 a 67.845047,67.845047 0 0 1 -5.468179,-2.265 l 28.672557,-61.48849 z"
       transform="scale(1,-1)" />
    <path
       style="fill:#ff8a3d;fill-opacity:1;stroke-width:0.264583"
       id="path51982"
       sodipodi:type="arc"
       sodipodi:cx="113.86581"
       sodipodi:cy="-205.90733"
       sodipodi:rx="67.845047"
       sodipodi:ry="67.845047"
       sodipodi:start="2.0071286"
       sodipodi:end="2.0943951"
       sodipodi:arc-type="slice"
       d="m 85.193253,-144.41884 a 67.845047,67.845047 0 0 1 -5.24997,-2.73296 l 33.922527,-58.75553 z"
       transform="scale(1,-1)" />
    <path
       style="fill:#ff4747;fill-opacity:1;stroke-width:0.264583"
       id="path51984"
       sodipodi:type="arc"
       sodipodi:cx="113.86581"
       sodipodi:cy="-205.90733"
       sodipodi:rx="67.845047"
       sodipodi:ry="67.845047"
       sodipodi:start="2.0943951"
       sodipodi:end="2.1816616"
       sodipodi:arc-type="slice"
       d="m 79.943283,-147.1518 a 67.845047,67.845047 0 0 1 -4.991799,-3.18013 l 38.914326,-55.5754 z"
       transform="scale(1,-1)" />
    <path
       style="fill:#0094ff;fill-opacity:1;stroke-width:0.264583"
       id="path51986"
       sodipodi:type="arc"
       sodipodi:cx="113.86581"
       sodipodi:cy="-205.90733"
       sodipodi:rx="67.845047"
       sodipodi:ry="67.845001"
       sodipodi:start="2.1816616"
       sodipodi:end="2.268928"
       sodipodi:arc-type="slice"
       d="m 74.951484,-150.33196 a 67.845047,67.845001 0 0 1 -4.695632,-3.60309 l 43.609958,-51.97228 z"
       transform="scale(1,-1)" />
    <path
       style="fill:#ffd800;fill-opacity:1;stroke-width:0.264583"
       id="path51988"
       sodipodi:type="arc"
       sodipodi:cx="113.86581"
       sodipodi:cy="-205.90733"
       sodipodi:rx="67.845047"
       sodipodi:ry="67.845047"
       sodipodi:start="2.268928"
       sodipodi:end="2.3561945"
       sodipodi:arc-type="slice"
       d="m 70.255852,-153.93501 a 67.845047,67.845047 0 0 1 -4.363739,-3.99863 l 47.973697,-47.97369 z"
       transform="scale(1,-1)" />
    <path
       style="fill:#c472ff;fill-opacity:1;stroke-width:0.264583"
       id="path51990"
       sodipodi:type="arc"
       sodipodi:cx="113.86581"
       sodipodi:cy="-205.90733"
       sodipodi:rx="67.845047"
       sodipodi:ry="67.845047"
       sodipodi:start="2.3561945"
       sodipodi:end="2.443461"
       sodipodi:arc-type="slice"
       d="m 65.892113,-157.93364 a 67.845047,67.845047 0 0 1 -3.99863,-4.36374 l 51.972327,-43.60995 z"
       transform="scale(1,-1)" />
    <path
       style="fill:#ffa8f3;fill-opacity:1;stroke-width:0.264583"
       id="path51992"
       sodipodi:type="arc"
       sodipodi:cx="113.86581"
       sodipodi:cy="-205.90733"
       sodipodi:rx="67.845047"
       sodipodi:ry="67.845047"
       sodipodi:start="2.443461"
       sodipodi:end="2.5307274"
       sodipodi:arc-type="slice"
       d="m 61.893483,-162.29738 a 67.845047,67.845047 0 0 1 -3.603085,-4.69563 l 55.575412,-38.91432 z"
       transform="scale(1,-1)" />
    <path
       style="fill:#32a800;fill-opacity:1;stroke-width:0.264583"
       id="path51994"
       sodipodi:type="arc"
       sodipodi:cx="113.86581"
       sodipodi:cy="-205.90733"
       sodipodi:rx="67.845047"
       sodipodi:ry="67.845047"
       sodipodi:start="2.5307274"
       sodipodi:end="2.6179939"
       sodipodi:arc-type="slice"
       d="m 58.290398,-166.99301 a 67.845047,67.845047 0 0 1 -3.180126,-4.9918 l 58.755538,-33.92252 z"
       transform="scale(1,-1)" />
    <path
       style="fill:#ff8a3d;fill-opacity:1;stroke-width:0.264583"
       id="path51996"
       sodipodi:type="arc"
       sodipodi:cx="113.86581"
       sodipodi:cy="-205.90733"
       sodipodi:rx="67.845047"
       sodipodi:ry="67.845047"
       sodipodi:start="2.6179939"
       sodipodi:end="2.7052603"
       sodipodi:arc-type="slice"
       d="m 55.110272,-171.98481 a 67.845047,67.845047 0 0 1 -2.732959,-5.24997 l 61.488497,-28.67255 z"
       transform="scale(1,-1)" />
    <path
       style="fill:#ff4747;fill-opacity:1;stroke-width:0.264583"
       id="path51998"
       sodipodi:type="arc"
       sodipodi:cx="113.86581"
       sodipodi:cy="-205.90733"
       sodipodi:rx="67.845047"
       sodipodi:ry="67.845047"
       sodipodi:start="2.7052603"
       sodipodi:end="2.7925268"
       sodipodi:arc-type="slice"
       d="m 52.377313,-177.23478 a 67.845047,67.845047 0 0 1 -2.264996,-5.46818 l 63.753493,-23.20437 z"
       transform="scale(1,-1)" />
    <path
       style="fill:#0094ff;fill-opacity:1;stroke-width:0.264583"
       id="path52000"
       sodipodi:type="arc"
       sodipodi:cx="113.86581"
       sodipodi:cy="-205.90733"
       sodipodi:rx="67.845047"
       sodipodi:ry="67.845047"
       sodipodi:start="2.7925268"
       sodipodi:end="2.8797933"
       sodipodi:arc-type="slice"
       d="m 50.112317,-182.70296 a 67.845047,67.845047 0 0 1 -1.779794,-5.64479 l 65.533287,-17.55958 z"
       transform="scale(1,-1)" />
    <path
       style="fill:#ffd800;fill-opacity:1;stroke-width:0.264583"
       id="path52002"
       sodipodi:type="arc"
       sodipodi:cx="113.86581"
       sodipodi:cy="-205.90733"
       sodipodi:rx="67.845047"
       sodipodi:ry="67.845047"
       sodipodi:start="2.8797933"
       sodipodi:end="2.9670597"
       sodipodi:arc-type="slice"
       d="m 48.332523,-188.34775 a 67.845047,67.845047 0 0 1 -1.281044,-5.77841 l 66.814331,-11.78117 z"
       transform="scale(1,-1)" />
    <path
       style="fill:#c472ff;fill-opacity:1;stroke-width:0.264583"
       id="path52004"
       sodipodi:type="arc"
       sodipodi:cx="113.86581"
       sodipodi:cy="-205.90733"
       sodipodi:rx="67.845047"
       sodipodi:ry="67.845047"
       sodipodi:start="2.8797933"
       sodipodi:end="2.9670597"
       sodipodi:arc-type="slice"
       d="m 48.332523,-188.34775 a 67.845047,67.845047 0 0 1 -1.281044,-5.77841 l 66.814331,-11.78117 z"
       transform="scale(1,-1)" />
    <path
       style="fill:#ffa8f3;fill-opacity:1;stroke-width:0.264583"
       id="path52006"
       sodipodi:type="arc"
       sodipodi:cx="113.86581"
       sodipodi:cy="-205.90733"
       sodipodi:rx="67.845047"
       sodipodi:ry="67.845047"
       sodipodi:start="2.9670597"
       sodipodi:end="3.0543262"
       sodipodi:arc-type="slice"
       d="m 47.051479,-194.12616 a 67.845047,67.845047 0 0 1 -0.772549,-5.86809 l 67.58688,-5.91308 z"
       transform="scale(1,-1)" />
    <path
       style="fill:#32a800;fill-opacity:1;stroke-width:0.264583"
       id="path52008"
       sodipodi:type="arc"
       sodipodi:cx="113.86581"
       sodipodi:cy="-205.90733"
       sodipodi:rx="67.845047"
       sodipodi:ry="67.845047"
       sodipodi:start="3.0543262"
       sodipodi:end="3.1415927"
       sodipodi:arc-type="slice"
       d="m 46.27893,-199.99425 a 67.845047,67.845047 0 0 1 -0.25817,-5.91308 h 67.84505 z"
       transform="scale(1,-1)" />
    <path
       style="fill:#ff8a3d;fill-opacity:1;stroke-width:0.264583"
       id="path52010"
       sodipodi:type="arc"
       sodipodi:cx="113.86581"
       sodipodi:cy="-205.90733"
       sodipodi:rx="67.845047"
       sodipodi:ry="67.845047"
       sodipodi:start="0.78539816"
       sodipodi:end="0.87266463"
       sodipodi:arc-type="slice"
       d="m 161.8395,-157.93364 a 67.845047,67.845047 0 0 1 -4.36374,3.99863 l -43.60995,-51.97232 z"
       transform="scale(1,-1)" />
    <path
       style="fill:#ff4747;fill-opacity:1;stroke-width:0.264583"
       id="path52012"
       sodipodi:type="arc"
       sodipodi:cx="113.86581"
       sodipodi:cy="-205.90733"
       sodipodi:rx="67.845047"
       sodipodi:ry="67.845047"
       sodipodi:start="0.87266463"
       sodipodi:end="0.95993109"
       sodipodi:arc-type="slice"
       d="m 157.47576,-153.93501 a 67.845047,67.845047 0 0 1 -4.69563,3.60309 l -38.91432,-55.57541 z"
       transform="scale(1,-1)" />
    <path
       style="fill:#0094ff;fill-opacity:1;stroke-width:0.264583"
       id="path52014"
       sodipodi:type="arc"
       sodipodi:cx="113.86581"
       sodipodi:cy="-205.90733"
       sodipodi:rx="67.845047"
       sodipodi:ry="67.845047"
       sodipodi:start="0.95993109"
       sodipodi:end="1.0471976"
       sodipodi:arc-type="slice"
       d="m 152.78013,-150.33192 a 67.845047,67.845047 0 0 1 -4.9918,3.18012 l -33.92252,-58.75553 z"
       transform="scale(1,-1)" />
  </g>
</svg>
